<svg width="16" height="17" viewBox="0 0 16 17" fill="none" xmlns="http://www.w3.org/2000/svg">
<path d="M6.0587 6.50001C6.21543 6.05446 6.5248 5.67875 6.932 5.43943C7.3392 5.20012 7.81796 5.11264 8.28348 5.19248C8.749 5.27233 9.17124 5.51436 9.47542 5.8757C9.77959 6.23703 9.94607 6.69436 9.94536 7.16668C9.94536 8.50001 7.94536 9.16668 7.94536 9.16668M7.9987 11.8333H8.00536M14.6654 8.50001C14.6654 12.1819 11.6806 15.1667 7.9987 15.1667C4.3168 15.1667 1.33203 12.1819 1.33203 8.50001C1.33203 4.81811 4.3168 1.83334 7.9987 1.83334C11.6806 1.83334 14.6654 4.81811 14.6654 8.50001Z" stroke="#807D7C" stroke-linecap="round" stroke-linejoin="round"/>
</svg>
