<svg width="25" height="25" viewBox="0 0 25 25" fill="none" xmlns="http://www.w3.org/2000/svg">
<path d="M24.5864 12.6758C24.5864 19.2604 19.2485 24.5983 12.664 24.5983C6.07938 24.5983 0.741529 19.2604 0.741529 12.6758C0.741529 6.09115 6.07938 0.753247 12.664 0.753247C19.2485 0.753247 24.5864 6.09115 24.5864 12.6758Z" fill="url(#paint0_linear_3108_8757)"/>
<path d="M24.5864 12.6758C24.5864 19.2604 19.2485 24.5983 12.664 24.5983C6.07938 24.5983 0.741529 19.2604 0.741529 12.6758C0.741529 6.09115 6.07938 0.753247 12.664 0.753247C19.2485 0.753247 24.5864 6.09115 24.5864 12.6758Z" fill="url(#paint1_linear_3108_8757)"/>
<path d="M24.5864 12.6758C24.5864 19.2604 19.2485 24.5983 12.664 24.5983C6.07938 24.5983 0.741529 19.2604 0.741529 12.6758C0.741529 6.09115 6.07938 0.753247 12.664 0.753247C19.2485 0.753247 24.5864 6.09115 24.5864 12.6758Z" stroke="url(#paint2_linear_3108_8757)" stroke-width="0.154932"/>
<ellipse cx="12.6618" cy="12.6757" rx="9.85714" ry="9.85723" fill="url(#paint3_linear_3108_8757)"/>
<g filter="url(#filter0_d_3108_8757)">
<path d="M7.48006 11.1694C7.32479 10.7492 7.79544 10.3741 8.17041 10.6193L15.2083 15.2211C15.595 15.4739 15.416 16.0749 14.9539 16.0749H9.61623C9.42165 16.0749 9.24767 15.9537 9.18024 15.7712L7.48006 11.1694Z" fill="url(#paint4_linear_3108_8757)"/>
<path d="M7.48006 11.1694C7.32479 10.7492 7.79544 10.3741 8.17041 10.6193L15.2083 15.2211C15.595 15.4739 15.416 16.0749 14.9539 16.0749H9.61623C9.42165 16.0749 9.24767 15.9537 9.18024 15.7712L7.48006 11.1694Z" fill="url(#paint5_linear_3108_8757)"/>
<path d="M17.8518 11.1637C18.0086 10.7445 17.5404 10.3676 17.1643 10.6103L10.0246 15.2196C9.63524 15.4709 9.81325 16.0749 10.2767 16.0749H15.6917C15.8855 16.0749 16.059 15.9546 16.127 15.773L17.8518 11.1637Z" fill="url(#paint6_linear_3108_8757)"/>
<path d="M17.8518 11.1637C18.0086 10.7445 17.5404 10.3676 17.1643 10.6103L10.0246 15.2196C9.63524 15.4709 9.81325 16.0749 10.2767 16.0749H15.6917C15.8855 16.0749 16.059 15.9546 16.127 15.773L17.8518 11.1637Z" fill="url(#paint7_linear_3108_8757)"/>
<path d="M12.2467 9.48872C12.4162 9.1398 12.9133 9.1398 13.0828 9.48872L15.9877 15.468C16.1376 15.7767 15.9128 16.1359 15.5696 16.1359H9.75993C9.41672 16.1359 9.19188 15.7767 9.34185 15.468L12.2467 9.48872Z" fill="url(#paint8_linear_3108_8757)"/>
<path d="M12.2467 9.48872C12.4162 9.1398 12.9133 9.1398 13.0828 9.48872L15.9877 15.468C16.1376 15.7767 15.9128 16.1359 15.5696 16.1359H9.75993C9.41672 16.1359 9.19188 15.7767 9.34185 15.468L12.2467 9.48872Z" fill="url(#paint9_linear_3108_8757)"/>
<ellipse cx="12.6636" cy="8.07885" rx="0.671419" ry="0.671425" fill="url(#paint10_linear_3108_8757)"/>
<ellipse cx="12.6636" cy="8.07885" rx="0.671419" ry="0.671425" fill="url(#paint11_linear_3108_8757)"/>
<ellipse cx="7.36184" cy="10.032" rx="0.549343" ry="0.549348" fill="url(#paint12_linear_3108_8757)"/>
<ellipse cx="7.36184" cy="10.032" rx="0.549343" ry="0.549348" fill="url(#paint13_linear_3108_8757)"/>
<ellipse cx="17.94" cy="10.032" rx="0.549343" ry="0.549348" fill="url(#paint14_linear_3108_8757)"/>
<ellipse cx="17.94" cy="10.032" rx="0.549343" ry="0.549348" fill="url(#paint15_linear_3108_8757)"/>
<rect x="9.26562" y="16.6654" width="6.6779" height="0.910631" rx="0.455315" fill="url(#paint16_linear_3108_8757)"/>
<rect x="9.26562" y="16.6654" width="6.6779" height="0.910631" rx="0.455315" fill="url(#paint17_linear_3108_8757)"/>
</g>
<defs>
<filter id="filter0_d_3108_8757" x="6.50264" y="7.40742" width="12.2994" height="10.7884" filterUnits="userSpaceOnUse" color-interpolation-filters="sRGB">
<feFlood flood-opacity="0" result="BackgroundImageFix"/>
<feColorMatrix in="SourceAlpha" type="matrix" values="0 0 0 0 0 0 0 0 0 0 0 0 0 0 0 0 0 0 127 0" result="hardAlpha"/>
<feOffset dy="0.309865"/>
<feGaussianBlur stdDeviation="0.154932"/>
<feComposite in2="hardAlpha" operator="out"/>
<feColorMatrix type="matrix" values="0 0 0 0 0.160406 0 0 0 0 0.160406 0 0 0 0 0.160406 0 0 0 1 0"/>
<feBlend mode="normal" in2="BackgroundImageFix" result="effect1_dropShadow_3108_8757"/>
<feBlend mode="normal" in="SourceGraphic" in2="effect1_dropShadow_3108_8757" result="shape"/>
</filter>
<linearGradient id="paint0_linear_3108_8757" x1="4.97172" y1="3.7527" x2="20.9717" y2="21.5987" gradientUnits="userSpaceOnUse">
<stop stop-color="#FFECA9"/>
<stop offset="0.237301" stop-color="#FFD600"/>
<stop offset="1" stop-color="#FF9900"/>
</linearGradient>
<linearGradient id="paint1_linear_3108_8757" x1="12.664" y1="0.675781" x2="12.664" y2="24.6758" gradientUnits="userSpaceOnUse">
<stop stop-color="#CFCFCF"/>
<stop offset="0.484375" stop-color="#EEEEEE"/>
<stop offset="1" stop-color="#919191"/>
</linearGradient>
<linearGradient id="paint2_linear_3108_8757" x1="12.664" y1="0.675781" x2="12.664" y2="24.6758" gradientUnits="userSpaceOnUse">
<stop stop-color="white" stop-opacity="0.5"/>
<stop offset="1" stop-color="white" stop-opacity="0"/>
</linearGradient>
<linearGradient id="paint3_linear_3108_8757" x1="12.6618" y1="2.81848" x2="12.6618" y2="20.0219" gradientUnits="userSpaceOnUse">
<stop offset="0.129018" stop-color="#B1B1B1"/>
<stop offset="1" stop-color="#666161"/>
</linearGradient>
<linearGradient id="paint4_linear_3108_8757" x1="7.56968" y1="11.6191" x2="11.1334" y2="14.2108" gradientUnits="userSpaceOnUse">
<stop stop-color="#FFE176"/>
<stop offset="1" stop-color="#FFA800"/>
</linearGradient>
<linearGradient id="paint5_linear_3108_8757" x1="11.7906" y1="9.84894" x2="11.7746" y2="16.0749" gradientUnits="userSpaceOnUse">
<stop stop-color="#EFEFEF"/>
<stop offset="1" stop-color="#D7D7D7"/>
</linearGradient>
<linearGradient id="paint6_linear_3108_8757" x1="17.3952" y1="10.8631" x2="15.2354" y2="14.7508" gradientUnits="userSpaceOnUse">
<stop stop-color="#FFE483"/>
<stop offset="1" stop-color="#F29100"/>
</linearGradient>
<linearGradient id="paint7_linear_3108_8757" x1="13.4838" y1="9.84894" x2="13.4996" y2="16.0749" gradientUnits="userSpaceOnUse">
<stop stop-color="#EFEFEF"/>
<stop offset="1" stop-color="#D7D7D7"/>
</linearGradient>
<linearGradient id="paint8_linear_3108_8757" x1="10.7988" y1="12.4929" x2="14.584" y2="12.4929" gradientUnits="userSpaceOnUse">
<stop offset="0.49738" stop-color="#FCE77B"/>
<stop offset="0.49738" stop-color="#FFCC1D"/>
</linearGradient>
<linearGradient id="paint9_linear_3108_8757" x1="12.6979" y1="8.62816" x2="12.6511" y2="18.6384" gradientUnits="userSpaceOnUse">
<stop stop-color="#EFEFEF"/>
<stop offset="1" stop-color="#D7D7D7"/>
</linearGradient>
<linearGradient id="paint10_linear_3108_8757" x1="12.6636" y1="7.40742" x2="12.6636" y2="8.75027" gradientUnits="userSpaceOnUse">
<stop stop-color="#FFCD1D"/>
<stop offset="1" stop-color="#FF971D"/>
</linearGradient>
<linearGradient id="paint11_linear_3108_8757" x1="12.6689" y1="7.40742" x2="12.6636" y2="8.75027" gradientUnits="userSpaceOnUse">
<stop stop-color="#EFEFEF"/>
<stop offset="1" stop-color="#D7D7D7"/>
</linearGradient>
<linearGradient id="paint12_linear_3108_8757" x1="7.36184" y1="9.48268" x2="7.36184" y2="10.5814" gradientUnits="userSpaceOnUse">
<stop stop-color="#FFCD1D"/>
<stop offset="1" stop-color="#FF971D"/>
</linearGradient>
<linearGradient id="paint13_linear_3108_8757" x1="7.36617" y1="9.48268" x2="7.36184" y2="10.5814" gradientUnits="userSpaceOnUse">
<stop stop-color="#EFEFEF"/>
<stop offset="1" stop-color="#D7D7D7"/>
</linearGradient>
<linearGradient id="paint14_linear_3108_8757" x1="17.94" y1="9.48268" x2="17.94" y2="10.5814" gradientUnits="userSpaceOnUse">
<stop stop-color="#FFCD1D"/>
<stop offset="1" stop-color="#FF971D"/>
</linearGradient>
<linearGradient id="paint15_linear_3108_8757" x1="17.9443" y1="9.48268" x2="17.94" y2="10.5814" gradientUnits="userSpaceOnUse">
<stop stop-color="#EFEFEF"/>
<stop offset="1" stop-color="#D7D7D7"/>
</linearGradient>
<linearGradient id="paint16_linear_3108_8757" x1="9.34151" y1="17.1208" x2="16.0194" y2="17.1208" gradientUnits="userSpaceOnUse">
<stop stop-color="#FDE07C"/>
<stop offset="1" stop-color="#FDE07C" stop-opacity="0"/>
</linearGradient>
<linearGradient id="paint17_linear_3108_8757" x1="12.6309" y1="16.6654" x2="12.6304" y2="17.5761" gradientUnits="userSpaceOnUse">
<stop stop-color="#EFEFEF"/>
<stop offset="1" stop-color="#D7D7D7"/>
</linearGradient>
</defs>
</svg>
