<svg width="19" height="19" viewBox="0 0 19 19" fill="none" xmlns="http://www.w3.org/2000/svg">
<rect width="18" height="18" transform="translate(0.84375 0.725586)" fill="white"/>
<path d="M17.0174 6.76682L15.3448 13.206C15.2961 13.3924 15.187 13.5575 15.0346 13.6755C14.8822 13.7934 14.695 13.8576 14.5023 13.8579H5.18424C4.99152 13.8576 4.80434 13.7934 4.65193 13.6755C4.49952 13.5575 4.39047 13.3924 4.3418 13.206L2.66914 6.76682C2.62846 6.61183 2.63136 6.44861 2.67752 6.29516C2.72368 6.14171 2.81132 6.00398 2.93076 5.89716C3.05021 5.79034 3.19683 5.71857 3.35447 5.68977C3.5121 5.66097 3.67463 5.67624 3.82413 5.73392L6.59563 6.80101C6.62365 6.81191 6.65444 6.81352 6.68345 6.8056C6.71247 6.79769 6.73817 6.78067 6.75679 6.75705L9.15712 3.68033C9.23811 3.57543 9.34208 3.49049 9.46103 3.43205C9.57998 3.3736 9.71075 3.34322 9.84328 3.34322C9.97581 3.34322 10.1066 3.3736 10.2255 3.43205C10.3445 3.49049 10.4484 3.57543 10.5294 3.68033L12.9298 6.75705C12.9484 6.78067 12.9741 6.79769 13.0031 6.8056C13.0321 6.81352 13.0629 6.81191 13.0909 6.80101L15.8624 5.73392C16.0119 5.67874 16.1735 5.66532 16.33 5.69509C16.4865 5.72486 16.6319 5.79669 16.7507 5.90289C16.8694 6.00908 16.957 6.14561 17.004 6.29782C17.051 6.45003 17.0556 6.61217 17.0174 6.76682Z" fill="black"/>
</svg>
