<svg width="24" height="24" viewBox="0 0 24 24" fill="none" xmlns="http://www.w3.org/2000/svg">
<path d="M7.61937 16.4235H16.3291C17.0931 16.4235 17.4751 16.4235 17.7865 16.2855C18.061 16.1638 18.2959 15.9677 18.4648 15.7194C18.6563 15.4378 18.7246 15.0619 18.8613 14.3102L19.9477 8.33496C19.995 8.07442 20.0187 7.94416 19.9821 7.84244C19.95 7.7532 19.8874 7.67818 19.8054 7.63063C19.7118 7.57643 19.5794 7.57643 19.3146 7.57643H6.41295M4 4.35931H5.05876C5.25395 4.35931 5.35154 4.35931 5.43047 4.39497C5.50004 4.42639 5.55923 4.47697 5.60112 4.54078C5.64864 4.61319 5.66387 4.70959 5.69431 4.90239L7.93565 19.0976C7.96609 19.2904 7.98131 19.3868 8.02884 19.4592C8.07073 19.523 8.12992 19.5735 8.19949 19.605C8.27842 19.6406 8.37601 19.6406 8.5712 19.6406H17.6728" stroke="#1A1A1A" stroke-width="1.5" stroke-linecap="round" stroke-linejoin="round"/>
</svg>
