<svg width="24" height="25" viewBox="0 0 24 25" fill="none" xmlns="http://www.w3.org/2000/svg">
<ellipse cx="12.0003" cy="12.6758" rx="12.0003" ry="12" fill="url(#paint0_linear_2766_25703)"/>
<ellipse cx="12.0136" cy="12.6773" rx="9.85738" ry="9.85714" fill="url(#paint1_linear_2766_25703)"/>
<g filter="url(#filter0_d_2766_25703)">
<path d="M6.81602 11.1683C6.66074 10.748 7.13139 10.373 7.50638 10.6182L14.5445 15.2199C14.9312 15.4727 14.7522 16.0737 14.2901 16.0737H8.95225C8.75767 16.0737 8.58368 15.9525 8.51625 15.77L6.81602 11.1683Z" fill="url(#paint2_linear_2766_25703)"/>
<path d="M17.1799 11.1626C17.3367 10.7433 16.8685 10.3664 16.4924 10.6092L9.35246 15.2184C8.96311 15.4698 9.14112 16.0737 9.60456 16.0737H15.0197C15.2136 16.0737 15.3871 15.9534 15.455 15.7718L17.1799 11.1626Z" fill="url(#paint3_linear_2766_25703)"/>
<path d="M11.5749 9.48632C11.7445 9.1374 12.2416 9.1374 12.4111 9.48632L15.316 15.4656C15.466 15.7743 15.2412 16.1335 14.8979 16.1335H9.0881C8.74488 16.1335 8.52003 15.7743 8.67002 15.4656L11.5749 9.48632Z" fill="url(#paint4_linear_2766_25703)"/>
<path d="M11.5749 9.48632C11.7445 9.1374 12.2416 9.1374 12.4111 9.48632L15.316 15.4656C15.466 15.7743 15.2412 16.1335 14.8979 16.1335H9.0881C8.74488 16.1335 8.52003 15.7743 8.67002 15.4656L11.5749 9.48632Z" fill="url(#paint5_linear_2766_25703)"/>
<ellipse cx="12.0152" cy="8.07804" rx="0.671441" ry="0.671425" fill="url(#paint6_linear_2766_25703)"/>
<ellipse cx="6.68999" cy="10.0311" rx="0.549361" ry="0.549348" fill="url(#paint7_linear_2766_25703)"/>
<ellipse cx="17.2837" cy="10.0311" rx="0.549361" ry="0.549348" fill="url(#paint8_linear_2766_25703)"/>
<rect x="8.57812" y="16.6632" width="6.67812" height="0.910631" rx="0.455315" fill="url(#paint9_linear_2766_25703)"/>
</g>
<defs>
<filter id="filter0_d_2766_25703" x="5.83075" y="7.40662" width="12.3151" height="10.787" filterUnits="userSpaceOnUse" color-interpolation-filters="sRGB">
<feFlood flood-opacity="0" result="BackgroundImageFix"/>
<feColorMatrix in="SourceAlpha" type="matrix" values="0 0 0 0 0 0 0 0 0 0 0 0 0 0 0 0 0 0 127 0" result="hardAlpha"/>
<feOffset dy="0.309872"/>
<feGaussianBlur stdDeviation="0.154936"/>
<feComposite in2="hardAlpha" operator="out"/>
<feColorMatrix type="matrix" values="0 0 0 0 0.358333 0 0 0 0 0.1935 0 0 0 0 0 0 0 0 1 0"/>
<feBlend mode="normal" in2="BackgroundImageFix" result="effect1_dropShadow_2766_25703"/>
<feBlend mode="normal" in="SourceGraphic" in2="effect1_dropShadow_2766_25703" result="shape"/>
</filter>
<linearGradient id="paint0_linear_2766_25703" x1="4.3078" y1="3.7527" x2="20.3078" y2="21.5992" gradientUnits="userSpaceOnUse">
<stop stop-color="#FFE8D8"/>
<stop offset="1" stop-color="#D69266"/>
</linearGradient>
<linearGradient id="paint1_linear_2766_25703" x1="5.49036" y1="4.55968" x2="13.6079" y2="22.5346" gradientUnits="userSpaceOnUse">
<stop offset="0.0572917" stop-color="#DE9E70"/>
<stop offset="1" stop-color="#8B4129"/>
</linearGradient>
<linearGradient id="paint2_linear_2766_25703" x1="8.03725" y1="10.646" x2="11.6805" y2="16.8611" gradientUnits="userSpaceOnUse">
<stop stop-color="#FFF5F1"/>
<stop offset="0.0001" stop-color="#FFF5F1"/>
<stop offset="1" stop-color="#FBB38B"/>
<stop offset="1" stop-color="#FFE9DD"/>
</linearGradient>
<linearGradient id="paint3_linear_2766_25703" x1="15.9408" y1="10.646" x2="12.3204" y2="16.9014" gradientUnits="userSpaceOnUse">
<stop stop-color="#FFF5F1"/>
<stop offset="0.0001" stop-color="#FFF5F1"/>
<stop offset="1" stop-color="#FBB38B"/>
<stop offset="1" stop-color="#FFE9DD"/>
</linearGradient>
<linearGradient id="paint4_linear_2766_25703" x1="10.127" y1="12.4905" x2="13.9123" y2="12.4905" gradientUnits="userSpaceOnUse">
<stop offset="0.49738" stop-color="#FCE77B"/>
<stop offset="0.49738" stop-color="#FFCC1D"/>
</linearGradient>
<linearGradient id="paint5_linear_2766_25703" x1="9.29317" y1="9.90915" x2="15.9931" y2="16.1976" gradientUnits="userSpaceOnUse">
<stop stop-color="#FFF5F1"/>
<stop offset="0.0001" stop-color="#FFF5F1"/>
<stop offset="1" stop-color="#FBB38B"/>
<stop offset="1" stop-color="#FFE9DD"/>
</linearGradient>
<linearGradient id="paint6_linear_2766_25703" x1="11.5848" y1="7.57878" x2="12.48" y2="8.57733" gradientUnits="userSpaceOnUse">
<stop stop-color="#FFF5F1"/>
<stop offset="0.0001" stop-color="#FFF5F1"/>
<stop offset="1" stop-color="#FBB38B"/>
<stop offset="1" stop-color="#FFE9DD"/>
</linearGradient>
<linearGradient id="paint7_linear_2766_25703" x1="6.33783" y1="9.62263" x2="7.07029" y2="10.4396" gradientUnits="userSpaceOnUse">
<stop stop-color="#FFF5F1"/>
<stop offset="0.0001" stop-color="#FFF5F1"/>
<stop offset="1" stop-color="#FBB38B"/>
<stop offset="1" stop-color="#FFE9DD"/>
</linearGradient>
<linearGradient id="paint8_linear_2766_25703" x1="16.9316" y1="9.62263" x2="17.664" y2="10.4396" gradientUnits="userSpaceOnUse">
<stop stop-color="#FFF5F1"/>
<stop offset="0.0001" stop-color="#FFF5F1"/>
<stop offset="1" stop-color="#FBB38B"/>
<stop offset="1" stop-color="#FFE9DD"/>
</linearGradient>
<linearGradient id="paint9_linear_2766_25703" x1="9.77676" y1="16.78" x2="9.92389" y2="17.9834" gradientUnits="userSpaceOnUse">
<stop stop-color="#FFF5F1"/>
<stop offset="0.0001" stop-color="#FFF5F1"/>
<stop offset="1" stop-color="#FBB38B"/>
<stop offset="1" stop-color="#FFE9DD"/>
</linearGradient>
</defs>
</svg>
