<svg width="24" height="24" viewBox="0 0 24 24" fill="none" xmlns="http://www.w3.org/2000/svg">
<path d="M3 19L3 5C3.00052 4.46973 3.2114 3.96132 3.58636 3.58636C3.96132 3.2114 4.46973 3.00052 5 3L9 3C9.53027 3.00052 10.0387 3.2114 10.4136 3.58636C10.7886 3.96132 10.9995 4.46973 11 5L11 19C10.9995 19.5303 10.7886 20.0387 10.4136 20.4136C10.0387 20.7886 9.53027 20.9995 9 21L5 21C4.46972 20.9995 3.96132 20.7886 3.58636 20.4136C3.2114 20.0387 3.00052 19.5303 3 19ZM9 5L5 5L5 19.0014L9 19L9 5Z" fill="#B1B1B1"/>
<path d="M13 19L13 5C13.0005 4.46973 13.2114 3.96132 13.5864 3.58636C13.9613 3.2114 14.4697 3.00052 15 3L19 3C19.5303 3.00052 20.0387 3.2114 20.4136 3.58636C20.7886 3.96132 20.9995 4.46973 21 5L21 19C20.9995 19.5303 20.7886 20.0387 20.4136 20.4136C20.0387 20.7886 19.5303 20.9995 19 21L15 21C14.4697 20.9995 13.9613 20.7886 13.5864 20.4136C13.2114 20.0387 13.0005 19.5303 13 19ZM19 5L15 5L15 19.0014L19 19L19 5Z" fill="#B1B1B1"/>
</svg>
