<svg width="24" height="25" viewBox="0 0 24 25" fill="none" xmlns="http://www.w3.org/2000/svg">
<path d="M9.6 20.3C9.6 20.7774 9.41036 21.2352 9.07279 21.5728C8.73523 21.9104 8.27739 22.1 7.8 22.1C7.32261 22.1 6.86477 21.9104 6.52721 21.5728C6.18964 21.2352 6 20.7774 6 20.3C6 19.8226 6.18964 19.3648 6.52721 19.0272C6.86477 18.6896 7.32261 18.5 7.8 18.5C8.27739 18.5 8.73523 18.6896 9.07279 19.0272C9.41036 19.3648 9.6 19.8226 9.6 20.3ZM18 20.3C18 20.7774 17.8104 21.2352 17.4728 21.5728C17.1352 21.9104 16.6774 22.1 16.2 22.1C15.7226 22.1 15.2648 21.9104 14.9272 21.5728C14.5896 21.2352 14.4 20.7774 14.4 20.3C14.4 19.8226 14.5896 19.3648 14.9272 19.0272C15.2648 18.6896 15.7226 18.5 16.2 18.5C16.6774 18.5 17.1352 18.6896 17.4728 19.0272C17.8104 19.3648 18 19.8226 18 20.3Z" fill="#3C3A3A"/>
<path d="M3.60002 5.30078C3.28176 5.30078 2.97654 5.42721 2.7515 5.65225C2.52645 5.8773 2.40002 6.18252 2.40002 6.50078V18.5008C2.40002 18.819 2.52645 19.1243 2.7515 19.3493C2.97654 19.5744 3.28176 19.7008 3.60002 19.7008H4.86002C4.99773 19.0226 5.36566 18.4129 5.90147 17.975C6.43728 17.537 7.10801 17.2978 7.80002 17.2978C8.49204 17.2978 9.16277 17.537 9.69858 17.975C10.2344 18.4129 10.6023 19.0226 10.74 19.7008H12C12.3183 19.7008 12.6235 19.5744 12.8486 19.3493C13.0736 19.1243 13.2 18.819 13.2 18.5008V6.50078C13.2 6.18252 13.0736 5.8773 12.8486 5.65225C12.6235 5.42721 12.3183 5.30078 12 5.30078H3.60002ZM16.8 8.90078C16.4818 8.90078 16.1765 9.02721 15.9515 9.25225C15.7265 9.4773 15.6 9.78252 15.6 10.1008V17.3608C15.9861 17.2819 16.384 17.2799 16.7708 17.3548C17.1577 17.4297 17.5261 17.5801 17.8548 17.7974C18.1835 18.0147 18.4662 18.2947 18.6868 18.6212C18.9073 18.9478 19.0613 19.3147 19.14 19.7008H20.4C20.7183 19.7008 21.0235 19.5744 21.2486 19.3493C21.4736 19.1243 21.6 18.819 21.6 18.5008V12.5008C21.6 12.1825 21.4735 11.8774 21.2484 11.6524L18.8484 9.25238C18.6234 9.02732 18.3183 8.90085 18 8.90078H16.8Z" fill="#3C3A3A"/>
</svg>
