<svg width="24" height="25" viewBox="0 0 24 25" fill="none" xmlns="http://www.w3.org/2000/svg">
<path fill-rule="evenodd" clip-rule="evenodd" d="M11.9999 22.1004C14.546 22.1004 16.9878 21.089 18.7881 19.2886C20.5885 17.4883 21.5999 15.0465 21.5999 12.5004C21.5999 9.95431 20.5885 7.51252 18.7881 5.71217C16.9878 3.91182 14.546 2.90039 11.9999 2.90039C9.45382 2.90039 7.01203 3.91182 5.21168 5.71217C3.41133 7.51252 2.3999 9.95431 2.3999 12.5004C2.3999 15.0465 3.41133 17.4883 5.21168 19.2886C7.01203 21.089 9.45382 22.1004 11.9999 22.1004ZM13.1999 7.70039C13.1999 7.38213 13.0735 7.07691 12.8484 6.85186C12.6234 6.62682 12.3182 6.50039 11.9999 6.50039C11.6816 6.50039 11.3764 6.62682 11.1514 6.85186C10.9263 7.07691 10.7999 7.38213 10.7999 7.70039V12.5004C10.8 12.8186 10.9264 13.1238 11.1515 13.3488L14.5451 16.7436C14.6566 16.8551 14.789 16.9435 14.9346 17.0039C15.0803 17.0642 15.2364 17.0953 15.3941 17.0953C15.5518 17.0953 15.7079 17.0642 15.8536 17.0039C15.9993 16.9435 16.1316 16.8551 16.2431 16.7436C16.3546 16.6321 16.443 16.4997 16.5034 16.3541C16.5637 16.2084 16.5948 16.0523 16.5948 15.8946C16.5948 15.7369 16.5637 15.5808 16.5034 15.4351C16.443 15.2894 16.3546 15.1571 16.2431 15.0456L13.1999 12.0036V7.70039Z" fill="#3C3A3A"/>
</svg>
