<svg width="24" height="25" viewBox="0 0 24 25" fill="none" xmlns="http://www.w3.org/2000/svg">
<path fill-rule="evenodd" clip-rule="evenodd" d="M4.8001 2.90039C5.11836 2.90039 5.42358 3.02682 5.64863 3.25186C5.87367 3.47691 6.0001 3.78213 6.0001 4.10039V6.62159C6.99855 5.60312 8.23981 4.85556 9.60699 4.44933C10.9742 4.0431 12.4222 3.99157 13.8148 4.2996C15.2074 4.60762 16.4987 5.26506 17.567 6.20999C18.6353 7.15492 19.4455 8.35624 19.9213 9.70079C19.979 9.8505 20.0061 10.0103 20.001 10.1706C19.9959 10.331 19.9587 10.4887 19.8916 10.6345C19.8245 10.7802 19.7288 10.911 19.6103 11.0191C19.4917 11.1272 19.3527 11.2105 19.2014 11.2639C19.0501 11.3174 18.8896 11.34 18.7295 11.3303C18.5693 11.3207 18.4127 11.279 18.2689 11.2078C18.1252 11.1365 17.9971 11.0372 17.8924 10.9156C17.7877 10.7941 17.7084 10.6527 17.6593 10.5C17.2971 9.47617 16.6638 8.56981 15.8271 7.87748C14.9904 7.18516 13.9815 6.73281 12.908 6.56865C11.8344 6.40448 10.7365 6.53465 9.73109 6.94528C8.7257 7.35591 7.85055 8.03161 7.1989 8.90039H10.8001C11.1184 8.90039 11.4236 9.02682 11.6486 9.25186C11.8737 9.47691 12.0001 9.78213 12.0001 10.1004C12.0001 10.4187 11.8737 10.7239 11.6486 10.9489C11.4236 11.174 11.1184 11.3004 10.8001 11.3004H4.8001C4.48184 11.3004 4.17661 11.174 3.95157 10.9489C3.72653 10.7239 3.6001 10.4187 3.6001 10.1004V4.10039C3.6001 3.78213 3.72653 3.47691 3.95157 3.25186C4.17661 3.02682 4.48184 2.90039 4.8001 2.90039ZM4.8097 13.7688C4.9583 13.7163 5.11579 13.6936 5.27316 13.702C5.43054 13.7104 5.58473 13.7497 5.72691 13.8176C5.8691 13.8856 5.99651 13.9809 6.10186 14.0981C6.2072 14.2154 6.28843 14.3522 6.3409 14.5008C6.70313 15.5246 7.33635 16.431 8.17308 17.1233C9.00981 17.8156 10.0187 18.268 11.0922 18.4321C12.1658 18.5963 13.2637 18.4661 14.2691 18.0555C15.2745 17.6449 16.1496 16.9692 16.8013 16.1004H13.2001C12.8818 16.1004 12.5766 15.974 12.3516 15.7489C12.1265 15.5239 12.0001 15.2187 12.0001 14.9004C12.0001 14.5821 12.1265 14.2769 12.3516 14.0519C12.5766 13.8268 12.8818 13.7004 13.2001 13.7004H19.2001C19.5184 13.7004 19.8236 13.8268 20.0486 14.0519C20.2737 14.2769 20.4001 14.5821 20.4001 14.9004V20.9004C20.4001 21.2187 20.2737 21.5239 20.0486 21.7489C19.8236 21.974 19.5184 22.1004 19.2001 22.1004C18.8818 22.1004 18.5766 21.974 18.3516 21.7489C18.1265 21.5239 18.0001 21.2187 18.0001 20.9004V18.3792C17.0016 19.3977 15.7604 20.1452 14.3932 20.5515C13.026 20.9577 11.578 21.0092 10.1854 20.7012C8.79277 20.3932 7.5015 19.7357 6.43319 18.7908C5.36487 17.8459 4.55467 16.6445 4.0789 15.3C4.02641 15.1514 4.00371 14.9939 4.01209 14.8365C4.02047 14.6791 4.05977 14.525 4.12774 14.3828C4.19572 14.2406 4.29104 14.1132 4.40825 14.0078C4.52547 13.9025 4.66229 13.8213 4.8109 13.7688H4.8097Z" fill="#3C3A3A"/>
</svg>
