<svg width="24" height="25" viewBox="0 0 24 25" fill="none" xmlns="http://www.w3.org/2000/svg">
<path d="M4.7999 5.30078C4.16338 5.30078 3.55293 5.55364 3.10285 6.00372C2.65276 6.45381 2.3999 7.06426 2.3999 7.70078V8.90078H21.5999V7.70078C21.5999 7.06426 21.347 6.45381 20.897 6.00372C20.4469 5.55364 19.8364 5.30078 19.1999 5.30078H4.7999Z" fill="#3C3A3A"/>
<path fill-rule="evenodd" clip-rule="evenodd" d="M21.5999 11.3008H2.3999V17.3008C2.3999 17.9373 2.65276 18.5477 3.10285 18.9978C3.55293 19.4479 4.16338 19.7008 4.7999 19.7008H19.1999C19.8364 19.7008 20.4469 19.4479 20.897 18.9978C21.347 18.5477 21.5999 17.9373 21.5999 17.3008V11.3008ZM4.7999 16.1008C4.7999 15.7825 4.92633 15.4773 5.15137 15.2523C5.37642 15.0272 5.68164 14.9008 5.9999 14.9008H7.1999C7.51816 14.9008 7.82339 15.0272 8.04843 15.2523C8.27347 15.4773 8.3999 15.7825 8.3999 16.1008C8.3999 16.419 8.27347 16.7243 8.04843 16.9493C7.82339 17.1744 7.51816 17.3008 7.1999 17.3008H5.9999C5.68164 17.3008 5.37642 17.1744 5.15137 16.9493C4.92633 16.7243 4.7999 16.419 4.7999 16.1008ZM10.7999 14.9008C10.4816 14.9008 10.1764 15.0272 9.95137 15.2523C9.72633 15.4773 9.5999 15.7825 9.5999 16.1008C9.5999 16.419 9.72633 16.7243 9.95137 16.9493C10.1764 17.1744 10.4816 17.3008 10.7999 17.3008H11.9999C12.3182 17.3008 12.6234 17.1744 12.8484 16.9493C13.0735 16.7243 13.1999 16.419 13.1999 16.1008C13.1999 15.7825 13.0735 15.4773 12.8484 15.2523C12.6234 15.0272 12.3182 14.9008 11.9999 14.9008H10.7999Z" fill="#3C3A3A"/>
</svg>
