<svg width="22" height="22" viewBox="0 0 22 22" fill="none" xmlns="http://www.w3.org/2000/svg">
<path d="M11.7136 6.483C11.6136 6.7926 11.3253 7.00238 11 7.00237C10.6746 7.00236 10.3864 6.79258 10.2863 6.48298C9.67145 4.58015 8.04815 3.28419 6.20568 3.28419C3.87559 3.28419 1.88265 5.37613 1.86531 8.11667C1.85781 9.30593 2.37954 10.5667 3.26027 11.8313C4.13608 13.0889 5.3222 14.2859 6.53417 15.3311C7.74272 16.3735 8.95594 17.247 9.86893 17.8607C10.3247 18.1671 10.7039 18.4076 10.9681 18.5708C10.9784 18.5772 10.9886 18.5835 10.9986 18.5897C11.008 18.5839 11.0174 18.578 11.0271 18.572C11.2894 18.4088 11.6662 18.1683 12.1193 17.8619C13.0269 17.2481 14.2337 16.3745 15.4381 15.332C16.6458 14.2866 17.8306 13.089 18.7104 11.8303C19.5952 10.5644 20.1271 9.3004 20.1346 8.10719C20.1518 5.38316 18.1323 3.28419 15.7943 3.28419C13.9518 3.28419 12.3286 4.58014 11.7136 6.483Z" stroke="#1A1A1A" stroke-width="1.5" stroke-miterlimit="10" stroke-linecap="round" stroke-linejoin="round"/>
</svg>
