<svg width="16" height="16" viewBox="0 0 16 16" fill="none" xmlns="http://www.w3.org/2000/svg">
<path d="M13.8333 1H8.98425C8.66348 1 8.21514 1.18583 7.9885 1.41231L1.34045 8.06032C0.886516 8.51374 0.886516 9.25715 1.34045 9.71002L6.29046 14.6599C6.74338 15.1133 7.48606 15.1133 7.93966 14.6593L14.5877 8.01236C14.8141 7.78593 15 7.33688 15 7.01678V2.16672C15 1.52517 14.4748 1 13.8333 1ZM11.4998 5.6667C10.8555 5.6667 10.3331 5.14378 10.3331 4.49998C10.3331 3.85511 10.8555 3.33326 11.4998 3.33326C12.1442 3.33326 12.6667 3.85511 12.6667 4.49998C12.6667 5.14378 12.1442 5.6667 11.4998 5.6667Z" fill="#474140"/>
</svg>
