<svg width="60" height="60" viewBox="0 0 60 60" fill="none" xmlns="http://www.w3.org/2000/svg">
<path d="M30 0C13.4573 0 0 13.4573 0 30C0 46.5427 13.4573 60 30 60C46.5427 60 60 46.5427 60 30C60 13.4573 46.5427 0 30 0Z" fill="#0BAE62"/>
<path d="M45.2057 23.6426L28.9555 39.8923C28.468 40.3798 27.8281 40.6252 27.1881 40.6252C26.5482 40.6252 25.9082 40.3798 25.4207 39.8923L17.2959 31.7674C16.318 30.7901 16.318 29.2099 17.2959 28.2326C18.2732 27.2548 19.8529 27.2548 20.8307 28.2326L27.1881 34.59L41.6709 20.1077C42.6482 19.1299 44.2279 19.1299 45.2057 20.1077C46.183 21.0851 46.183 22.6648 45.2057 23.6426Z" fill="#FAFAFA"/>
</svg>
