<svg width="28" height="28" viewBox="0 0 28 28" fill="none" xmlns="http://www.w3.org/2000/svg">
<path d="M14.7136 7.9004C14.6136 8.21 14.3253 8.41977 14 8.41977C13.6746 8.41976 13.3864 8.20997 13.2863 7.90038C12.4383 5.27595 10.1885 3.46219 7.60758 3.46219C4.34037 3.46219 1.59425 6.38655 1.57042 10.1539C1.55996 11.8121 2.28614 13.5439 3.47521 15.2512C4.65936 16.9515 6.25771 18.563 7.88228 19.9641C9.50343 21.3623 11.1296 22.533 12.3524 23.355C12.9631 23.7656 13.4715 24.0879 13.826 24.307C13.8884 24.3456 13.946 24.381 13.9986 24.413C14.0503 24.3813 14.1069 24.3463 14.1682 24.3082C14.5203 24.0891 15.0254 23.7667 15.6325 23.3562C16.848 22.5342 18.4655 21.3633 20.0811 19.965C21.7 18.5638 23.2962 16.9517 24.4854 15.2502C25.6797 13.5416 26.419 11.8066 26.4295 10.1444C26.4532 6.39359 23.6675 3.46219 20.3924 3.46219C17.8115 3.46219 15.5618 5.27594 14.7136 7.9004Z" stroke="#1A1A1A" stroke-width="1.5" stroke-miterlimit="10" stroke-linecap="round" stroke-linejoin="round"/>
</svg>
