<svg width="29" height="28" viewBox="0 0 29 28" fill="none" xmlns="http://www.w3.org/2000/svg">
<path fill-rule="evenodd" clip-rule="evenodd" d="M14.8535 3.5C12.0017 3.5 11.6447 3.5119 10.5247 3.563C9.40682 3.6141 8.64312 3.7919 7.97532 4.0516C7.27532 4.3148 6.64042 4.7278 6.11542 5.2626C5.58147 5.78699 5.16822 6.42145 4.90442 7.1218C4.64612 7.7896 4.46762 8.554 4.41652 9.6719C4.36612 10.7912 4.35352 11.1475 4.35352 14C4.35352 16.8525 4.36542 17.2088 4.41652 18.3288C4.46762 19.4467 4.64542 20.2104 4.90512 20.8782C5.16832 21.5782 5.58132 22.2131 6.11612 22.7381C6.64052 23.272 7.27497 23.6853 7.97532 23.9491C8.64312 24.2081 9.40682 24.3859 10.5247 24.437C11.6447 24.4881 12.0017 24.5 14.8535 24.5C17.7053 24.5 18.0623 24.4881 19.1823 24.437C20.3002 24.3859 21.0639 24.2081 21.7317 23.9484C22.4317 23.6852 23.0666 23.2722 23.5916 22.7374C24.1256 22.213 24.5388 21.5786 24.8026 20.8782C25.0616 20.2104 25.2394 19.4467 25.2905 18.3288C25.3416 17.2088 25.3535 16.8518 25.3535 14C25.3535 11.1482 25.3416 10.7912 25.2905 9.6712C25.2394 8.5533 25.0616 7.7896 24.8019 7.1218C24.5383 6.42114 24.125 5.78642 23.5909 5.2619C23.0665 4.72796 22.4321 4.3147 21.7317 4.0509C21.0639 3.7926 20.2995 3.6141 19.1816 3.563C18.0623 3.5126 17.706 3.5 14.8535 3.5ZM14.8535 5.3921C17.657 5.3921 17.9895 5.4026 19.0969 5.453C20.1203 5.4999 20.6761 5.67 21.0464 5.8149C21.5364 6.0046 21.8864 6.2328 22.2539 6.5996C22.6214 6.9671 22.8489 7.3171 23.0386 7.8071C23.1828 8.1774 23.3536 8.7332 23.4005 9.7566C23.4509 10.864 23.4614 11.1965 23.4614 14C23.4614 16.8035 23.4509 17.136 23.4005 18.2434C23.3536 19.2668 23.1835 19.8226 23.0386 20.1929C22.8706 20.649 22.6024 21.0616 22.2539 21.4004C21.9152 21.749 21.5025 22.0171 21.0464 22.1851C20.6761 22.3293 20.1203 22.5001 19.0969 22.547C17.9895 22.5974 17.6577 22.6079 14.8535 22.6079C12.0493 22.6079 11.7175 22.5974 10.6101 22.547C9.58672 22.5001 9.03092 22.33 8.66062 22.1851C8.20453 22.0171 7.79192 21.7489 7.45312 21.4004C7.10464 21.0616 6.83651 20.649 6.66842 20.1929C6.52422 19.8226 6.35342 19.2668 6.30652 18.2434C6.25612 17.136 6.24562 16.8035 6.24562 14C6.24562 11.1965 6.25612 10.864 6.30652 9.7566C6.35342 8.7332 6.52352 8.1774 6.66842 7.8071C6.85812 7.3171 7.08632 6.9671 7.45312 6.5996C7.79187 6.25103 8.2045 5.98288 8.66062 5.8149C9.03092 5.6707 9.58672 5.4999 10.6101 5.453C11.7175 5.4026 12.05 5.3921 14.8535 5.3921Z" fill="#1A1A1A"/>
<path fill-rule="evenodd" clip-rule="evenodd" d="M14.8531 17.5037C14.393 17.5037 13.9374 17.4131 13.5123 17.2371C13.0873 17.061 12.701 16.8029 12.3757 16.4776C12.0504 16.1523 11.7923 15.766 11.6162 15.341C11.4402 14.9159 11.3496 14.4603 11.3496 14.0002C11.3496 13.5402 11.4402 13.0846 11.6162 12.6595C11.7923 12.2344 12.0504 11.8482 12.3757 11.5229C12.701 11.1976 13.0873 10.9395 13.5123 10.7634C13.9374 10.5874 14.393 10.4967 14.8531 10.4967C15.7822 10.4967 16.6734 10.8659 17.3304 11.5229C17.9874 12.1799 18.3566 13.0711 18.3566 14.0002C18.3566 14.9294 17.9874 15.8206 17.3304 16.4776C16.6734 17.1346 15.7822 17.5037 14.8531 17.5037ZM14.8531 8.60324C13.4217 8.60324 12.0489 9.17185 11.0368 10.184C10.0247 11.1961 9.45605 12.5689 9.45605 14.0002C9.45605 15.4316 10.0247 16.8044 11.0368 17.8165C12.0489 18.8286 13.4217 19.3972 14.8531 19.3972C16.2844 19.3972 17.6572 18.8286 18.6693 17.8165C19.6814 16.8044 20.2501 15.4316 20.2501 14.0002C20.2501 12.5689 19.6814 11.1961 18.6693 10.184C17.6572 9.17185 16.2844 8.60324 14.8531 8.60324ZM21.8201 8.50524C21.8201 8.84359 21.6857 9.16808 21.4465 9.40733C21.2072 9.64658 20.8828 9.78099 20.5444 9.78099C20.2061 9.78099 19.8816 9.64658 19.6423 9.40733C19.4031 9.16808 19.2687 8.84359 19.2687 8.50524C19.2687 8.16689 19.4031 7.8424 19.6423 7.60315C19.8816 7.3639 20.2061 7.22949 20.5444 7.22949C20.8828 7.22949 21.2072 7.3639 21.4465 7.60315C21.6857 7.8424 21.8201 8.16689 21.8201 8.50524Z" fill="#1A1A1A"/>
</svg>
