<svg width="98" height="28" viewBox="0 0 98 28" fill="none" xmlns="http://www.w3.org/2000/svg">
<g clip-path="url(#clip0_3008_12023)">
<path d="M36.0186 5.43201H41.8933C41.8933 5.43201 47.9982 5.51567 47.2067 11.2614C47.2067 11.2614 46.7221 13.817 43.9626 14.7584L47.5136 22.3224H44.4228L41.1786 15.1942H38.7781L38.8043 22.3224H36.0186V5.43201ZM38.8025 8.12186V12.4119H41.9945C41.9945 12.4119 43.579 12.4364 44.3444 11.1847C44.3444 11.1847 45.1114 9.5496 43.6035 8.70753C43.6035 8.70753 42.9393 8.22464 41.8672 8.12357H38.8025V8.12186Z" fill="#161A21"/>
<path d="M12.8978 18.1704L14.8606 20.1594C13.3511 21.6638 11.2696 22.6 8.9493 22.6C4.33141 22.6 0.550293 19.2494 0.550293 13.9848C0.550293 8.93634 4.04377 5.36963 8.9493 5.36963C11.2696 5.36963 13.3528 6.30406 14.8606 7.83629L12.8978 9.7958C11.8937 8.78995 10.4816 8.16924 8.9493 8.16924C5.50288 8.16924 3.39877 10.6098 3.39877 13.9831C3.39877 17.5725 5.86373 19.7985 8.9493 19.7985C10.4834 19.7985 11.8937 19.178 12.8978 18.1704Z" fill="#161A21"/>
<path d="M32.4101 5.48926V15.5165C32.4101 15.6874 32.3874 17.2877 31.5733 18.9159C30.4244 21.2118 28.2471 22.479 25.4474 22.479C22.6478 22.479 20.4705 21.2135 19.3217 18.9159C18.5075 17.2877 18.4849 15.6874 18.4849 15.5165V5.48926H32.4101ZM29.6348 15.4921V8.289H21.2601V15.5165C21.2601 15.5165 21.2846 16.6653 21.8599 17.7444C22.5537 19.0588 23.7269 19.683 25.4492 19.683C27.196 19.683 28.3691 19.0605 29.0386 17.7444C29.6122 16.6636 29.6348 15.5165 29.6348 15.4921Z" fill="#161A21"/>
<path d="M64.7822 22.2403H61.9564L53.6288 10.3234V22.2403H50.8291V5.48926H53.6532L62.0051 17.4079V5.48926H64.7822V22.2403Z" fill="#161A21"/>
<path d="M80.5396 16.0181C80.5396 19.4402 77.7382 22.2398 74.318 22.2398C70.8959 22.2398 68.0962 19.4402 68.0962 16.0181C68.0962 12.5961 70.8959 9.79646 74.318 9.79646C77.7382 9.79646 80.5396 12.5961 80.5396 16.0181ZM68.8616 5.25H79.9173V8.02708H68.8616V5.25ZM77.7625 16.0181C77.7625 14.1023 76.232 12.5717 74.318 12.5717C72.4021 12.5717 70.8716 14.1023 70.8716 16.0181C70.8716 17.934 72.4021 19.4645 74.318 19.4645C76.232 19.4645 77.7625 17.934 77.7625 16.0181Z" fill="#161A21"/>
<path d="M98.1888 22.2403H95.3647L87.0372 10.3234V22.2403H84.2358V5.48926H87.0615L95.4118 17.4079V5.48926H98.1888V22.2403Z" fill="#161A21"/>
</g>
<defs>
<clipPath id="clip0_3008_12023">
<rect width="98" height="28" fill="white"/>
</clipPath>
</defs>
</svg>
