<svg width="56" height="36" viewBox="0 0 56 36" fill="none" xmlns="http://www.w3.org/2000/svg">
<g clip-path="url(#clip0_3008_10823)">
<path d="M34.2827 1H22.1396V4.03625H34.2827V1Z" fill="#1A1A1A"/>
<path d="M32.0083 12.5407C32.0083 14.6375 30.3089 16.3389 28.211 16.3389C26.1142 16.3389 24.4138 14.6386 24.4138 12.5407C24.4138 10.4428 26.1142 8.74232 28.211 8.74232C30.308 8.74337 32.0083 10.4437 32.0083 12.5407ZM28.211 5.729C24.4496 5.729 21.3994 8.77921 21.3994 12.5407C21.3994 16.3021 24.4496 19.3523 28.211 19.3523C31.9735 19.3523 35.0237 16.3021 35.0237 12.5407C35.0237 8.77921 31.9735 5.729 28.211 5.729Z" fill="#1A1A1A"/>
<path d="M20.582 24.7891H23.939C23.939 24.7891 27.4275 24.8369 26.9753 28.1202C26.9753 28.1202 26.6984 29.5805 25.1215 30.1184L27.1506 34.4407H25.3845L23.5306 30.3674H22.1589L22.1739 34.4407H20.582V24.7891ZM22.1729 26.3261V28.7776H23.9968C23.9968 28.7776 24.9023 28.7916 25.3397 28.0763C25.3397 28.0763 25.7779 27.142 24.9163 26.6608C24.9163 26.6608 24.5368 26.3849 23.9241 26.3271H22.1729V26.3261Z" fill="#1A1A1A"/>
<path d="M7.37017 32.0681L8.49178 33.2047C7.62917 34.0644 6.43975 34.5993 5.11388 34.5993C2.47509 34.5993 0.314453 32.6847 0.314453 29.6764C0.314453 26.7915 2.31073 24.7534 5.11388 24.7534C6.43975 24.7534 7.63015 25.2874 8.49178 26.1629L7.37017 27.2827C6.79638 26.7079 5.98949 26.3532 5.11388 26.3532C3.1445 26.3532 1.94216 27.7478 1.94216 29.6754C1.94216 31.7265 3.3507 32.9985 5.11388 32.9985C5.99049 32.9985 6.79638 32.6439 7.37017 32.0681Z" fill="#1A1A1A"/>
<path d="M18.5202 24.8218V30.5516C18.5202 30.6493 18.5073 31.5638 18.0421 32.4941C17.3856 33.8061 16.1414 34.5302 14.5416 34.5302C12.9418 34.5302 11.6976 33.807 11.0412 32.4941C10.5759 31.5638 10.563 30.6493 10.563 30.5516V24.8218H18.5202ZM16.9344 30.5377V26.4216H12.1488V30.5516C12.1488 30.5516 12.1628 31.2081 12.4916 31.8247C12.888 32.5758 13.5584 32.9325 14.5426 32.9325C15.5408 32.9325 16.2111 32.5768 16.5937 31.8247C16.9214 31.2071 16.9344 30.5516 16.9344 30.5377Z" fill="#1A1A1A"/>
<path d="M37.0181 34.3938H35.4034L30.6448 27.5841V34.3938H29.0449V24.8218H30.6587L35.4312 31.6324V24.8218H37.0181V34.3938Z" fill="#1A1A1A"/>
<path d="M46.0226 30.8383C46.0226 32.7937 44.4218 34.3935 42.4674 34.3935C40.512 34.3935 38.9121 32.7937 38.9121 30.8383C38.9121 28.8828 40.512 27.283 42.4674 27.283C44.4218 27.283 46.0226 28.8828 46.0226 30.8383ZM39.3495 24.6851H45.667V26.272H39.3495V24.6851ZM44.4357 30.8383C44.4357 29.7435 43.5612 28.8689 42.4674 28.8689C41.3726 28.8689 40.498 29.7435 40.498 30.8383C40.498 31.9331 41.3726 32.8077 42.4674 32.8077C43.5612 32.8077 44.4357 31.9331 44.4357 30.8383Z" fill="#1A1A1A"/>
<path d="M56.1079 34.3938H54.4941L49.7355 27.5841V34.3938H48.1348V24.8218H49.7495L54.521 31.6324V24.8218H56.1079V34.3938Z" fill="#1A1A1A"/>
</g>
<defs>
<clipPath id="clip0_3008_10823">
<rect width="56" height="36" fill="white"/>
</clipPath>
</defs>
</svg>
