<svg width="20" height="20" viewBox="0 0 20 20" fill="none" xmlns="http://www.w3.org/2000/svg">
<path fill-rule="evenodd" clip-rule="evenodd" d="M17.135 6.21018L14.9175 3.43852C14.4433 2.84518 13.725 2.50018 12.965 2.50018H7.035C6.27583 2.50018 5.5575 2.84518 5.08333 3.43852L2.86583 6.21018C2.62917 6.50602 2.5 6.87268 2.5 7.25102V15.0002C2.5 16.381 3.61917 17.5002 5 17.5002H15C16.3808 17.5002 17.5 16.381 17.5 15.0002V7.25102C17.5 6.87268 17.3717 6.50602 17.135 6.21018Z" stroke="#807D7C" stroke-width="1.5" stroke-linecap="round" stroke-linejoin="round"/>
<path d="M8.33333 10L6.66667 8.33337L5 10" stroke="#807D7C" stroke-width="1.5" stroke-linecap="round" stroke-linejoin="round"/>
<path d="M10.8327 14.1667C10.2577 14.1667 9.70935 14.05 9.21102 13.8392C8.71268 13.6284 8.26352 13.3234 7.88602 12.9467C7.50935 12.5692 7.20435 12.12 6.99352 11.6217C6.78268 11.1234 6.66602 10.575 6.66602 10V9.58337V9.16671V8.75004V8.33337" stroke="#807D7C" stroke-width="1.5" stroke-linecap="round" stroke-linejoin="round"/>
<path d="M11.666 10.8334L13.3327 12.5L14.9993 10.8334" stroke="#807D7C" stroke-width="1.5" stroke-linecap="round" stroke-linejoin="round"/>
<path d="M9.16602 6.66669C9.74102 6.66669 10.2893 6.78335 10.7877 6.99419C11.286 7.20502 11.7352 7.51002 12.1127 7.88669C12.4893 8.26419 12.7943 8.71335 13.0052 9.21169C13.216 9.71002 13.3327 10.2584 13.3327 10.8334V11.25V11.6667V12.0834V12.5" stroke="#807D7C" stroke-width="1.5" stroke-linecap="round" stroke-linejoin="round"/>
</svg>
