<svg width="20" height="20" viewBox="0 0 20 20" fill="none" xmlns="http://www.w3.org/2000/svg">
<path d="M2.5 4.99998C2.5 4.07915 3.24583 3.33331 4.16667 3.33331H10.8333C11.7542 3.33331 12.5 4.07915 12.5 4.99998V12.5H2.5" stroke="#807D7C" stroke-width="1.5" stroke-linecap="round" stroke-linejoin="round"/>
<path fill-rule="evenodd" clip-rule="evenodd" d="M18.3333 12.5H12.5V6.66666L15.8333 6.66083L18.3333 9.16666V12.5Z" stroke="#807D7C" stroke-width="1.5" stroke-linecap="round" stroke-linejoin="round"/>
<path fill-rule="evenodd" clip-rule="evenodd" d="M16.6673 14.1606C16.6673 15.0815 15.9215 15.8273 15.0007 15.8273C14.0798 15.8273 13.334 15.0815 13.334 14.1606C13.334 13.2398 14.0798 12.494 15.0007 12.494C15.9215 12.494 16.6673 13.2398 16.6673 14.1606Z" stroke="#807D7C" stroke-width="1.5" stroke-linecap="round" stroke-linejoin="round"/>
<path fill-rule="evenodd" clip-rule="evenodd" d="M6.66732 14.1667C6.66732 15.0875 5.92148 15.8333 5.00065 15.8333C4.07982 15.8333 3.33398 15.0875 3.33398 14.1667C3.33398 13.2458 4.07982 12.5 5.00065 12.5C5.92148 12.5 6.66732 13.2458 6.66732 14.1667Z" stroke="#807D7C" stroke-width="1.5" stroke-linecap="round" stroke-linejoin="round"/>
<path d="M4.16797 7.494H1.66797" stroke="#807D7C" stroke-width="1.5" stroke-linecap="round" stroke-linejoin="round"/>
<path d="M5.00065 9.994H0.833984" stroke="#807D7C" stroke-width="1.5" stroke-linecap="round" stroke-linejoin="round"/>
</svg>
