<svg width="34" height="34" viewBox="0 0 34 34" fill="none" xmlns="http://www.w3.org/2000/svg">
<path d="M23.2434 25.2237C21.4873 25.2237 19.7911 24.7231 18.3265 23.7703L14.0522 23.9833C13.8579 23.9945 13.6673 23.9011 13.559 23.7367C13.4506 23.5723 13.432 23.3668 13.5179 23.1875L15.0311 19.9481C14.4931 18.7675 14.2203 17.5083 14.2203 16.1969C14.2203 11.2202 18.2704 7.17383 23.2471 7.17383C28.2238 7.17383 32.2702 11.2202 32.2702 16.1969C32.2702 21.1736 28.2238 25.2237 23.2471 25.2237H23.2434ZM18.4834 22.642C18.5955 22.642 18.7038 22.6756 18.7972 22.7391C20.1087 23.6321 21.648 24.1028 23.2434 24.1028C27.5999 24.1028 31.1456 20.5571 31.1456 16.1969C31.1456 11.8367 27.5999 8.29471 23.2434 8.29471C18.8869 8.29471 15.3375 11.8404 15.3375 16.1969C15.3375 17.4261 15.6102 18.6031 16.152 19.6978C16.2267 19.851 16.2304 20.0303 16.1557 20.1835L14.9265 22.8176L18.4572 22.642C18.4572 22.642 18.4759 22.642 18.4834 22.642Z" fill="#1A1A1A" stroke="#1A1A1A" stroke-width="0.2"/>
<path d="M19.2043 16.978C18.6215 16.978 18.147 16.5035 18.147 15.9206C18.147 15.3378 18.6215 14.8633 19.2043 14.8633C19.7872 14.8633 20.2617 15.3378 20.2617 15.9206C20.2617 16.5035 19.7872 16.978 19.2043 16.978Z" fill="#1A1A1A" stroke="#1A1A1A" stroke-width="0.2"/>
<path d="M23.322 16.978C22.7392 16.978 22.2646 16.5035 22.2646 15.9206C22.2646 15.3378 22.7392 14.8633 23.322 14.8633C23.9049 14.8633 24.3794 15.3378 24.3794 15.9206C24.3794 16.5035 23.9049 16.978 23.322 16.978Z" fill="#1A1A1A" stroke="#1A1A1A" stroke-width="0.2"/>
<path d="M27.4431 16.978C26.8602 16.978 26.3857 16.5035 26.3857 15.9206C26.3857 15.3378 26.8602 14.8633 27.4431 14.8633C28.026 14.8633 28.5005 15.3378 28.5005 15.9206C28.5005 16.5035 28.026 16.978 27.4431 16.978Z" fill="#1A1A1A" stroke="#1A1A1A" stroke-width="0.2"/>
<path d="M18.4346 33.7946H5.0364C3.21311 33.7946 1.72607 32.3113 1.72607 30.4843V3.52713C1.72607 1.70009 3.20937 0.216797 5.0364 0.216797H18.4346C20.2579 0.216797 21.745 1.70009 21.745 3.52713V5.95943C21.745 6.26954 21.4946 6.51987 21.1845 6.51987C20.8744 6.51987 20.6241 6.26954 20.6241 5.95943V3.52713C20.6241 2.32031 19.6415 1.33768 18.4346 1.33768H5.0364C3.82959 1.33768 2.84695 2.32031 2.84695 3.52713V30.4843C2.84695 31.6911 3.82959 32.6737 5.0364 32.6737H18.4346C19.6415 32.6737 20.6241 31.6911 20.6241 30.4843V26.3258C20.6241 26.0157 20.8744 25.7654 21.1845 25.7654C21.4946 25.7654 21.745 26.0157 21.745 26.3258V30.4843C21.745 32.3076 20.2617 33.7946 18.4346 33.7946Z" fill="#1A1A1A" stroke="#1A1A1A" stroke-width="0.2"/>
<path d="M15.9762 3.43001H7.49493C6.04899 3.43001 4.87207 2.24561 4.87207 0.788467C4.87207 0.478357 5.1224 0.228027 5.43251 0.228027H18.0349C18.345 0.228027 18.5954 0.478357 18.5954 0.788467C18.5954 2.24561 17.4184 3.43001 15.9725 3.43001H15.9762ZM6.1013 1.34517C6.32174 1.90935 6.8635 2.30539 7.49866 2.30539H15.9762C16.6077 2.30539 17.1532 1.90561 17.3736 1.34517H6.1013Z" fill="#1A1A1A" stroke="#1A1A1A" stroke-width="0.2"/>
<path d="M15.2889 31.6199H8.18251C7.8724 31.6199 7.62207 31.3696 7.62207 31.0595C7.62207 30.7494 7.8724 30.499 8.18251 30.499H15.2851C15.5953 30.499 15.8456 30.7494 15.8456 31.0595C15.8456 31.3696 15.5953 31.6199 15.2851 31.6199H15.2889Z" fill="#1A1A1A" stroke="#1A1A1A" stroke-width="0.2"/>
</svg>
