<svg width="40" height="40" viewBox="0 0 40 40" fill="none" xmlns="http://www.w3.org/2000/svg">
<g clip-path="url(#clip0_527_29832)">
<path d="M36.1152 14.7211C36.1152 15.006 36.3455 15.2363 36.6304 15.2363C36.9152 15.2363 37.1455 15.006 37.1455 14.7211V12.2969C37.1455 12.012 36.9152 11.7817 36.6304 11.7817C36.3455 11.7817 36.1152 12.012 36.1152 12.2969V14.7211Z" fill="#1A1A1A" stroke="#1A1A1A" stroke-width="0.3"/>
<path d="M36.1152 19.0483C36.1152 19.3331 36.3455 19.5634 36.6304 19.5634C36.9152 19.5634 37.1455 19.3331 37.1455 19.0483V16.624C37.1455 16.3392 36.9152 16.1089 36.6304 16.1089C36.3455 16.1089 36.1152 16.3392 36.1152 16.624V19.0483Z" fill="#1A1A1A" stroke="#1A1A1A" stroke-width="0.3"/>
<path d="M36.1152 23.3754C36.1152 23.6603 36.3455 23.8906 36.6304 23.8906C36.9152 23.8906 37.1455 23.6603 37.1455 23.3754V20.9512C37.1455 20.6663 36.9152 20.436 36.6304 20.436C36.3455 20.436 36.1152 20.6663 36.1152 20.9512V23.3754Z" fill="#1A1A1A" stroke="#1A1A1A" stroke-width="0.3"/>
<path d="M36.1152 27.7089C36.1152 27.9938 36.3455 28.2241 36.6304 28.2241C36.9152 28.2241 37.1455 27.9938 37.1455 27.7089V25.2847C37.1455 24.9998 36.9152 24.7695 36.6304 24.7695C36.3455 24.7695 36.1152 24.9998 36.1152 25.2847V27.7089Z" fill="#1A1A1A" stroke="#1A1A1A" stroke-width="0.3"/>
<path d="M36.1152 32.0361C36.1152 32.3209 36.3455 32.5512 36.6304 32.5512C36.9152 32.5512 37.1455 32.3209 37.1455 32.0361V29.6118C37.1455 29.327 36.9152 29.0967 36.6304 29.0967C36.3455 29.0967 36.1152 29.327 36.1152 29.6118V32.0361Z" fill="#1A1A1A" stroke="#1A1A1A" stroke-width="0.3"/>
<path d="M36.6304 10.9028C36.9152 10.9028 37.1455 10.6725 37.1455 10.3876V7.96339C37.1455 7.67855 36.9152 7.44824 36.6304 7.44824C36.3455 7.44824 36.1152 7.67855 36.1152 7.96339V10.3876C36.1152 10.6725 36.3455 10.9028 36.6304 10.9028Z" fill="#1A1A1A" stroke="#1A1A1A" stroke-width="0.3"/>
<path d="M38.7397 0.605957H34.5215C34.2366 0.605957 34.0063 0.83626 34.0063 1.12111V5.33929C34.0063 5.62414 34.2366 5.85444 34.5215 5.85444H38.7397C39.0245 5.85444 39.2548 5.62414 39.2548 5.33929V1.12111C39.2548 0.83626 39.0245 0.605957 38.7397 0.605957ZM38.2245 4.82414H35.0367V1.63626H38.2245V4.82414Z" fill="#1A1A1A" stroke="#1A1A1A" stroke-width="0.3"/>
<path d="M38.7397 34.1455H34.5215C34.2366 34.1455 34.0063 34.3758 34.0063 34.6607V38.8788C34.0063 39.1637 34.2366 39.394 34.5215 39.394H38.7397C39.0245 39.394 39.2548 39.1637 39.2548 38.8788V34.6607C39.2548 34.3758 39.0245 34.1455 38.7397 34.1455ZM38.2245 38.3637H35.0367V35.1758H38.2245V38.3637Z" fill="#1A1A1A" stroke="#1A1A1A" stroke-width="0.3"/>
<path d="M7.96388 3.74515H10.3881C10.673 3.74515 10.9033 3.51484 10.9033 3.23C10.9033 2.94515 10.673 2.71484 10.3881 2.71484H7.96388C7.67903 2.71484 7.44873 2.94515 7.44873 3.23C7.44873 3.51484 7.67903 3.74515 7.96388 3.74515Z" fill="#1A1A1A" stroke="#1A1A1A" stroke-width="0.3"/>
<path d="M12.297 3.74515H14.7212C15.0061 3.74515 15.2364 3.51484 15.2364 3.23C15.2364 2.94515 15.0061 2.71484 14.7212 2.71484H12.297C12.0122 2.71484 11.7819 2.94515 11.7819 3.23C11.7758 3.51484 12.0061 3.74515 12.297 3.74515Z" fill="#1A1A1A" stroke="#1A1A1A" stroke-width="0.3"/>
<path d="M16.6245 3.74515H19.0488C19.3336 3.74515 19.5639 3.51484 19.5639 3.23C19.5639 2.94515 19.3336 2.71484 19.0488 2.71484H16.6245C16.3397 2.71484 16.1094 2.94515 16.1094 3.23C16.1094 3.51484 16.3397 3.74515 16.6245 3.74515Z" fill="#1A1A1A" stroke="#1A1A1A" stroke-width="0.3"/>
<path d="M20.9517 3.74515H23.3759C23.6608 3.74515 23.8911 3.51484 23.8911 3.23C23.8911 2.94515 23.6608 2.71484 23.3759 2.71484H20.9517C20.6668 2.71484 20.4365 2.94515 20.4365 3.23C20.4365 3.51484 20.6668 3.74515 20.9517 3.74515Z" fill="#1A1A1A" stroke="#1A1A1A" stroke-width="0.3"/>
<path d="M25.2788 3.74515H27.7031C27.9879 3.74515 28.2182 3.51484 28.2182 3.23C28.2182 2.94515 27.9879 2.71484 27.7031 2.71484H25.2788C24.994 2.71484 24.7637 2.94515 24.7637 3.23C24.7637 3.51484 24.994 3.74515 25.2788 3.74515Z" fill="#1A1A1A" stroke="#1A1A1A" stroke-width="0.3"/>
<path d="M29.6123 3.74515H32.0366C32.3214 3.74515 32.5517 3.51484 32.5517 3.23C32.5517 2.94515 32.3214 2.71484 32.0366 2.71484H29.6123C29.3275 2.71484 29.0972 2.94515 29.0972 3.23C29.0972 3.51484 29.3275 3.74515 29.6123 3.74515Z" fill="#1A1A1A" stroke="#1A1A1A" stroke-width="0.3"/>
<path d="M10.3881 36.2544H7.96388C7.67903 36.2544 7.44873 36.4847 7.44873 36.7695C7.44873 37.0544 7.67903 37.2847 7.96388 37.2847H10.3881C10.673 37.2847 10.9033 37.0544 10.9033 36.7695C10.9033 36.4847 10.673 36.2544 10.3881 36.2544Z" fill="#1A1A1A" stroke="#1A1A1A" stroke-width="0.3"/>
<path d="M14.7211 36.2544H12.2969C12.012 36.2544 11.7817 36.4847 11.7817 36.7695C11.7817 37.0544 12.012 37.2847 12.2969 37.2847H14.7211C15.006 37.2847 15.2363 37.0544 15.2363 36.7695C15.2363 36.4847 15.006 36.2544 14.7211 36.2544Z" fill="#1A1A1A" stroke="#1A1A1A" stroke-width="0.3"/>
<path d="M19.0488 36.2544H16.6245C16.3397 36.2544 16.1094 36.4847 16.1094 36.7695C16.1094 37.0544 16.3397 37.2847 16.6245 37.2847H19.0488C19.3336 37.2847 19.5639 37.0544 19.5639 36.7695C19.5639 36.4847 19.3336 36.2544 19.0488 36.2544Z" fill="#1A1A1A" stroke="#1A1A1A" stroke-width="0.3"/>
<path d="M23.3759 36.2544H20.9517C20.6668 36.2544 20.4365 36.4847 20.4365 36.7695C20.4365 37.0544 20.6668 37.2847 20.9517 37.2847H23.3759C23.6608 37.2847 23.8911 37.0544 23.8911 36.7695C23.8911 36.4847 23.6608 36.2544 23.3759 36.2544Z" fill="#1A1A1A" stroke="#1A1A1A" stroke-width="0.3"/>
<path d="M27.7094 36.2544H25.2852C25.0003 36.2544 24.77 36.4847 24.77 36.7695C24.77 37.0544 25.0003 37.2847 25.2852 37.2847H27.7094C27.9943 37.2847 28.2246 37.0544 28.2246 36.7695C28.2246 36.4847 27.9943 36.2544 27.7094 36.2544Z" fill="#1A1A1A" stroke="#1A1A1A" stroke-width="0.3"/>
<path d="M32.0366 36.2544H29.6123C29.3275 36.2544 29.0972 36.4847 29.0972 36.7695C29.0972 37.0544 29.3275 37.2847 29.6123 37.2847H32.0366C32.3214 37.2847 32.5517 37.0544 32.5517 36.7695C32.5517 36.4847 32.3214 36.2544 32.0366 36.2544Z" fill="#1A1A1A" stroke="#1A1A1A" stroke-width="0.3"/>
<path d="M2.85449 14.7211C2.85449 15.006 3.0848 15.2363 3.36964 15.2363C3.65449 15.2363 3.8848 15.006 3.8848 14.7211V12.2969C3.8848 12.012 3.65449 11.7817 3.36964 11.7817C3.0848 11.7817 2.85449 12.012 2.85449 12.2969V14.7211Z" fill="#1A1A1A" stroke="#1A1A1A" stroke-width="0.3"/>
<path d="M2.85449 19.0483C2.85449 19.3331 3.0848 19.5634 3.36964 19.5634C3.65449 19.5634 3.8848 19.3331 3.8848 19.0483V16.624C3.8848 16.3392 3.65449 16.1089 3.36964 16.1089C3.0848 16.1089 2.85449 16.3392 2.85449 16.624V19.0483Z" fill="#1A1A1A" stroke="#1A1A1A" stroke-width="0.3"/>
<path d="M2.85449 23.3754C2.85449 23.6603 3.0848 23.8906 3.36964 23.8906C3.65449 23.8906 3.8848 23.6603 3.8848 23.3754V20.9512C3.8848 20.6663 3.65449 20.436 3.36964 20.436C3.0848 20.436 2.85449 20.6663 2.85449 20.9512V23.3754Z" fill="#1A1A1A" stroke="#1A1A1A" stroke-width="0.3"/>
<path d="M2.85449 27.7089C2.85449 27.9938 3.0848 28.2241 3.36964 28.2241C3.65449 28.2241 3.8848 27.9938 3.8848 27.7089V25.2847C3.8848 24.9998 3.65449 24.7695 3.36964 24.7695C3.0848 24.7695 2.85449 24.9998 2.85449 25.2847V27.7089Z" fill="#1A1A1A" stroke="#1A1A1A" stroke-width="0.3"/>
<path d="M2.85449 32.0361C2.85449 32.3209 3.0848 32.5512 3.36964 32.5512C3.65449 32.5512 3.8848 32.3209 3.8848 32.0361V29.6118C3.8848 29.327 3.65449 29.0967 3.36964 29.0967C3.0848 29.0967 2.85449 29.327 2.85449 29.6118V32.0361Z" fill="#1A1A1A" stroke="#1A1A1A" stroke-width="0.3"/>
<path d="M3.36964 10.9028C3.65449 10.9028 3.8848 10.6725 3.8848 10.3876V7.96339C3.8848 7.67855 3.65449 7.44824 3.36964 7.44824C3.0848 7.44824 2.85449 7.67855 2.85449 7.96339V10.3876C2.85449 10.6725 3.0848 10.9028 3.36964 10.9028Z" fill="#1A1A1A" stroke="#1A1A1A" stroke-width="0.3"/>
<path d="M5.47894 0.605957H1.26076C0.975908 0.605957 0.745605 0.83626 0.745605 1.12111V5.33929C0.745605 5.62414 0.975908 5.85444 1.26076 5.85444H5.47894C5.76379 5.85444 5.99409 5.62414 5.99409 5.33929V1.12111C5.99409 0.83626 5.76379 0.605957 5.47894 0.605957ZM4.96379 4.82414H1.77591V1.63626H4.96379V4.82414Z" fill="#1A1A1A" stroke="#1A1A1A" stroke-width="0.3"/>
<path d="M5.47894 34.1455H1.26076C0.975908 34.1455 0.745605 34.3758 0.745605 34.6607V38.8788C0.745605 39.1637 0.975908 39.394 1.26076 39.394H5.47894C5.76379 39.394 5.99409 39.1637 5.99409 38.8788V34.6607C5.99409 34.3758 5.76379 34.1455 5.47894 34.1455ZM4.96379 38.3637H1.77591V35.1758H4.96379V38.3637Z" fill="#1A1A1A" stroke="#1A1A1A" stroke-width="0.3"/>
<path d="M28.7178 23.5494L16.8609 11.7077C16.8153 11.6621 16.7595 11.6316 16.6986 11.6113C16.6936 11.6113 16.6936 11.6063 16.6885 11.6063L10.0247 9.49657C9.87253 9.44585 9.70518 9.48642 9.58854 9.60307C9.47697 9.71971 9.43132 9.88706 9.48204 10.0392L11.6019 16.703C11.6019 16.7081 11.607 16.7132 11.612 16.7182C11.6323 16.7791 11.6627 16.8349 11.7084 16.8805L23.5602 28.7172V28.7222L26.0655 31.2275C26.1517 31.3137 26.2582 31.3543 26.3698 31.3543C26.4814 31.3543 26.5929 31.3137 26.6741 31.2275L31.2231 26.6785C31.3043 26.5973 31.3499 26.4857 31.3499 26.3742C31.3499 26.2626 31.3043 26.151 31.2231 26.0699L28.7178 23.5494ZM23.8645 27.7942L12.6212 16.5661L16.5566 12.6256L27.7999 23.8537L25.2693 26.3894L23.8645 27.7942ZM15.7503 12.2098L14.6295 13.3305L12.2054 15.7547L10.5572 10.5666L15.7503 12.2098ZM26.3698 30.2994L24.4782 28.4078L24.539 28.3469L28.4136 24.4673L30.3103 26.364L26.3698 30.2994Z" fill="#1A1A1A" stroke="#1A1A1A" stroke-width="0.3"/>
<path d="M24.4669 23.7071L16.586 16.0594C16.4135 15.8921 16.1397 15.8971 15.9774 16.0696C15.81 16.242 15.8151 16.5158 15.9875 16.6781L23.8685 24.3207C23.9547 24.4019 24.0612 24.4424 24.1677 24.4424C24.2793 24.4424 24.3908 24.3968 24.4771 24.3106C24.6444 24.1483 24.6393 23.8744 24.4669 23.7071Z" fill="#1A1A1A" stroke="#1A1A1A" stroke-width="0.3"/>
<path d="M14.9072 30.2535C14.9122 30.2484 14.9173 30.2484 14.9224 30.2434C14.9274 30.2383 14.9274 30.2332 14.9325 30.2282L17.1639 27.9917C17.169 27.9866 17.1741 27.9866 17.1791 27.9815C17.1842 27.9765 17.1842 27.9714 17.1893 27.9663L18.9034 26.2522C19.0708 26.0848 19.0708 25.811 18.9034 25.6436C18.7361 25.4763 18.4622 25.4763 18.2949 25.6436L16.8698 27.0687L15.5259 25.7298C15.3585 25.5625 15.0847 25.5625 14.9173 25.7298C14.7499 25.8972 14.7499 26.171 14.9173 26.3384L16.2612 27.6772L14.613 29.3305L13.9132 28.6357C13.7458 28.4684 13.472 28.4684 13.3046 28.6357C13.1372 28.8031 13.1372 29.0769 13.3046 29.2443L14.0044 29.9391L13.2437 30.7049C13.0561 30.8925 12.7569 30.8925 12.5692 30.7049L9.30834 27.449C9.21705 27.3577 9.16634 27.2411 9.16634 27.1092C9.16634 26.9825 9.21705 26.8607 9.30834 26.7695L14.3645 21.7082C14.5319 21.5409 14.5319 21.267 14.3645 21.0996C14.1972 20.9323 13.9233 20.9323 13.756 21.0996L8.69977 26.1609C8.4462 26.4145 8.3042 26.7492 8.3042 27.1092C8.3042 27.4693 8.4462 27.804 8.69977 28.0576L11.9607 31.3134C12.2193 31.5771 12.5642 31.7039 12.909 31.7039C13.2539 31.7039 13.5937 31.5721 13.8574 31.3134L14.9072 30.2535Z" fill="#1A1A1A" stroke="#1A1A1A" stroke-width="0.3"/>
<path d="M28.0423 8.68522C27.5199 8.16287 26.6679 8.16287 26.1456 8.68522L21.0894 13.7515C20.922 13.9189 20.922 14.1928 21.0894 14.3601C21.2567 14.5275 21.5306 14.5275 21.698 14.3601L26.7541 9.29379C26.9418 9.10615 27.241 9.11122 27.4286 9.29379L30.6895 12.5496C30.8772 12.7373 30.8772 13.0416 30.6895 13.2292L29.9288 13.9899L28.5849 12.646C28.4176 12.4786 28.1437 12.4786 27.9763 12.646C27.809 12.8133 27.809 13.0872 27.9763 13.2546L29.3203 14.5985L27.6721 16.2517L26.9722 15.557C26.8048 15.3896 26.531 15.3896 26.3636 15.557C26.1963 15.7243 26.1963 15.9982 26.3636 16.1655L27.0635 16.8603L25.6384 18.2854C25.4711 18.4527 25.4711 18.7266 25.6384 18.8939C25.7246 18.9802 25.8311 19.0207 25.9427 19.0207C26.0543 19.0207 26.1659 18.9802 26.247 18.8939L27.9662 17.1747C27.9713 17.1697 27.9763 17.1697 27.9814 17.1646C27.9865 17.1595 27.9865 17.1545 27.9916 17.1494L30.228 14.9078C30.2331 14.9028 30.2382 14.9028 30.2382 14.8977C30.2433 14.8926 30.2433 14.8875 30.2483 14.8875L31.3032 13.8327C31.8255 13.3103 31.8255 12.4583 31.3032 11.9309L28.0423 8.68522Z" fill="#1A1A1A" stroke="#1A1A1A" stroke-width="0.3"/>
</g>
<defs>
<clipPath id="clip0_527_29832">
<rect width="40" height="40" fill="white"/>
</clipPath>
</defs>
</svg>
