<svg width="30" height="40" viewBox="0 0 30 40" fill="none" xmlns="http://www.w3.org/2000/svg">
<path d="M13.75 30.625C19.6087 30.625 24.375 25.8586 24.375 20C24.375 14.1414 19.6087 9.375 13.75 9.375C7.89133 9.375 3.125 14.1414 3.125 20C3.125 25.8586 7.89133 30.625 13.75 30.625ZM13.125 10.6463V11.875C13.125 12.2202 13.4048 12.5 13.75 12.5C14.0952 12.5 14.375 12.2202 14.375 11.875V10.6463C19.0473 10.9555 22.7945 14.7026 23.1037 19.375H21.875C21.5298 19.375 21.25 19.6548 21.25 20C21.25 20.3452 21.5298 20.625 21.875 20.625H23.1037C22.7945 25.2974 19.0473 29.0446 14.375 29.3537V28.125C14.375 27.7798 14.0952 27.5 13.75 27.5C13.4048 27.5 13.125 27.7798 13.125 28.125V29.3537C8.45266 29.0445 4.70547 25.2974 4.39633 20.625H5.625C5.97016 20.625 6.25 20.3452 6.25 20C6.25 19.6548 5.97016 19.375 5.625 19.375H4.39633C4.70539 14.7026 8.45258 10.9554 13.125 10.6463Z" fill="#1A1A1A"/>
<path d="M28.2812 16.875H27.1415C27.0246 16.3736 26.8794 15.883 26.7091 15.4042L27.5839 14.8994C28.4046 14.4265 28.6874 13.3735 28.2139 12.5516L27.4325 11.1984C26.9574 10.3755 25.9074 10.0942 25.0842 10.5697L24.2035 11.0784C24.0128 10.8552 23.815 10.6384 23.6107 10.4279L22.6532 5.16172C22.5163 4.40828 21.9019 3.84641 21.1564 3.76219L20.7905 1.56664C20.6392 0.658906 19.8614 0 18.941 0H8.55886C7.63847 0 6.86065 0.658906 6.7094 1.56672L6.34347 3.76219C5.598 3.84641 4.98362 4.40828 4.84675 5.16156L3.88917 10.4278C-1.30114 15.7731 -1.29294 24.2352 3.88917 29.5721L4.84675 34.8382C4.98362 35.5916 5.598 36.1535 6.34347 36.2377L6.7094 38.4333C6.86065 39.3411 7.63847 40 8.55886 40H18.941C19.8614 40 20.6392 39.3411 20.7905 38.4333L21.1564 36.2377C21.9019 36.1535 22.5163 35.5916 22.6532 34.8384L23.6107 29.5721C23.8151 29.3616 24.0129 29.1448 24.2036 28.9216C25.0833 29.4298 25.3672 29.6616 25.9416 29.6616C26.5348 29.6616 27.1124 29.356 27.4326 28.8016L28.2142 27.4479C28.6874 26.6265 28.4046 25.5735 27.5842 25.1009L26.7091 24.5958C26.8794 24.117 27.0246 23.6264 27.1415 23.125H28.2812C29.2289 23.125 30 22.354 30 21.4062V18.5938C30 17.646 29.2289 16.875 28.2812 16.875ZM25.7094 11.6521C25.9325 11.523 26.2197 11.5977 26.35 11.8234L27.131 13.1759C27.2601 13.4002 27.1833 13.6873 26.9594 13.8164L26.2318 14.2363C25.8791 13.4755 25.4594 12.752 24.9793 12.0738L25.7094 11.6521ZM7.94237 1.77227C7.99284 1.46969 8.25206 1.25 8.55886 1.25H18.941C19.2478 1.25 19.5071 1.46969 19.5575 1.77227L19.8871 3.75H7.61276L7.94237 1.77227ZM6.53745 5H20.9625C21.1889 5 21.3828 5.16195 21.4233 5.38531L22.0951 9.08C17.1651 5.30344 10.3308 5.30656 5.4048 9.08L6.07659 5.38516C6.11714 5.16195 6.31097 5 6.53745 5ZM13.75 7.5C20.6425 7.5 26.25 13.1074 26.25 20C26.25 26.8926 20.6425 32.5 13.75 32.5C6.85745 32.5 1.24995 26.8926 1.24995 20C1.24995 13.1074 6.85745 7.5 13.75 7.5ZM19.5575 38.2277C19.5071 38.5303 19.2478 38.75 18.941 38.75H8.55886C8.25206 38.75 7.99276 38.5303 7.94237 38.2277L7.61276 36.25H19.8871L19.5575 38.2277ZM20.9625 35C19.3903 35 8.10855 35 6.53745 35C6.31097 35 6.11714 34.838 6.07659 34.6147L5.4048 30.92C10.3348 34.6966 17.1691 34.6934 22.0951 30.92L21.4233 34.6148C21.3827 34.838 21.1889 35 20.9625 35ZM26.9598 26.1837C27.1834 26.3125 27.2602 26.5997 27.1314 26.8234L26.3502 28.1764C26.2203 28.4013 25.9338 28.4774 25.7095 28.3477L24.9794 27.926C25.4595 27.2479 25.8792 26.5243 26.2319 25.7635L26.9598 26.1837ZM28.75 21.4062C28.75 21.6648 28.5397 21.875 28.2812 21.875H27.3716C27.5426 20.6264 27.5429 19.3757 27.3716 18.125H28.2812C28.5397 18.125 28.75 18.3352 28.75 18.5938V21.4062Z" fill="#1A1A1A"/>
<path d="M13.308 20.4419C13.5522 20.686 13.9478 20.6859 14.1919 20.4419L19.1919 15.4419C19.436 15.1978 19.436 14.8021 19.1919 14.558C18.9478 14.314 18.5521 14.314 18.308 14.558L13.75 19.1161L11.0669 16.433C10.8229 16.189 10.4272 16.189 10.1831 16.433C9.93896 16.6771 9.93896 17.0728 10.1831 17.3169L13.308 20.4419Z" fill="#1A1A1A"/>
</svg>
