<svg width="24" height="25" viewBox="0 0 24 25" fill="none" xmlns="http://www.w3.org/2000/svg">
<path d="M3 6.15527C3 5.05027 3.895 4.15527 5 4.15527H13C14.105 4.15527 15 5.05027 15 6.15527V15.1553H3" stroke="#1A1A1A" stroke-width="1.5" stroke-linecap="round" stroke-linejoin="round"/>
<path fill-rule="evenodd" clip-rule="evenodd" d="M22 15.1553H15V8.15528L19 8.14828L22 11.1553V15.1553Z" stroke="#1A1A1A" stroke-width="1.5" stroke-linecap="round" stroke-linejoin="round"/>
<path fill-rule="evenodd" clip-rule="evenodd" d="M20 17.1481C20 18.2531 19.105 19.1481 18 19.1481C16.895 19.1481 16 18.2531 16 17.1481C16 16.0431 16.895 15.1481 18 15.1481C19.105 15.1481 20 16.0431 20 17.1481Z" stroke="#1A1A1A" stroke-width="1.5" stroke-linecap="round" stroke-linejoin="round"/>
<path fill-rule="evenodd" clip-rule="evenodd" d="M8 17.1553C8 18.2603 7.105 19.1553 6 19.1553C4.895 19.1553 4 18.2603 4 17.1553C4 16.0503 4.895 15.1553 6 15.1553C7.105 15.1553 8 16.0503 8 17.1553Z" stroke="#1A1A1A" stroke-width="1.5" stroke-linecap="round" stroke-linejoin="round"/>
<path d="M5 9.14807H2" stroke="#1A1A1A" stroke-width="1.5" stroke-linecap="round" stroke-linejoin="round"/>
<path d="M6 12.1481H1" stroke="#1A1A1A" stroke-width="1.5" stroke-linecap="round" stroke-linejoin="round"/>
</svg>
