<svg width="24" height="25" viewBox="0 0 24 25" fill="none" xmlns="http://www.w3.org/2000/svg">
<path fill-rule="evenodd" clip-rule="evenodd" d="M20.562 7.60749L17.901 4.28149C17.332 3.56949 16.47 3.15549 15.558 3.15549H8.442C7.531 3.15549 6.669 3.56949 6.1 4.28149L3.439 7.60749C3.155 7.96249 3 8.40249 3 8.85649V18.1555C3 19.8125 4.343 21.1555 6 21.1555H18C19.657 21.1555 21 19.8125 21 18.1555V8.85649C21 8.40249 20.846 7.96249 20.562 7.60749Z" stroke="#1A1A1A" stroke-width="1.5" stroke-linecap="round" stroke-linejoin="round"/>
<path d="M10 12.1553L8 10.1553L6 12.1553" stroke="#1A1A1A" stroke-width="1.5" stroke-linecap="round" stroke-linejoin="round"/>
<path d="M13 17.1553C12.31 17.1553 11.652 17.0153 11.054 16.7623C10.456 16.5093 9.917 16.1433 9.464 15.6913C9.012 15.2383 8.646 14.6993 8.393 14.1013C8.14 13.5033 8 12.8453 8 12.1553V11.6553V11.1553V10.6553V10.1553" stroke="#1A1A1A" stroke-width="1.5" stroke-linecap="round" stroke-linejoin="round"/>
<path d="M14 13.1553L16 15.1553L18 13.1553" stroke="#1A1A1A" stroke-width="1.5" stroke-linecap="round" stroke-linejoin="round"/>
<path d="M11 8.15527C11.69 8.15527 12.348 8.29527 12.946 8.54827C13.544 8.80127 14.083 9.16727 14.536 9.61927C14.988 10.0723 15.354 10.6113 15.607 11.2093C15.86 11.8073 16 12.4653 16 13.1553V13.6553V14.1553V14.6553V15.1553" stroke="#1A1A1A" stroke-width="1.5" stroke-linecap="round" stroke-linejoin="round"/>
</svg>
