<svg width="18" height="18" fill="none" xmlns="http://www.w3.org/2000/svg"><path d="M7.292 5.045C8.052 3.682 8.432 3 9 3c.568 0 .948.682 1.708 2.045l.197.353c.216.387.324.58.492.709.168.127.378.175.797.27l.382.086c1.476.334 2.214.501 2.39 1.066.175.564-.328 1.152-1.334 2.329l-.26.304c-.286.335-.43.502-.493.709-.065.206-.043.43 0 .875l.04.407c.151 1.57.227 2.354-.232 2.703-.46.349-1.15.03-2.532-.605l-.358-.165c-.393-.18-.589-.271-.797-.271-.208 0-.404.09-.797.271l-.358.165c-1.381.636-2.072.954-2.532.605-.46-.349-.383-1.134-.231-2.703l.039-.407c.043-.446.065-.669 0-.875-.064-.207-.207-.374-.493-.709l-.26-.304c-1.006-1.177-1.51-1.765-1.334-2.33.176-.564.914-.73 2.39-1.065l.382-.086c.419-.095.629-.143.797-.27.168-.128.276-.322.492-.71l.197-.352z" fill="#F6AF15"/></svg>