<svg width="25" height="24" viewBox="0 0 25 24" fill="none" xmlns="http://www.w3.org/2000/svg">
<path d="M20.4525 7.92007C20.4647 8.09639 20.4647 8.2727 20.4647 8.45064C20.4647 13.8725 16.3371 20.1256 8.78966 20.1256V20.1224C6.56013 20.1256 4.3769 19.487 2.5 18.2829C2.82419 18.3219 3.15001 18.3414 3.47664 18.3422C5.32429 18.3438 7.11913 17.7239 8.57272 16.5823C6.81688 16.549 5.27717 15.4041 4.73928 13.7328C5.35436 13.8514 5.98812 13.827 6.59181 13.6621C4.67753 13.2753 3.30033 11.5934 3.30033 9.64016C3.30033 9.62229 3.30033 9.60522 3.30033 9.58816C3.87071 9.90585 4.50934 10.0822 5.1626 10.1017C3.35964 8.89671 2.80388 6.49818 3.89265 4.6229C5.97593 7.18637 9.04966 8.74477 12.3493 8.90971C12.0186 7.48457 12.4703 5.99117 13.5364 4.98934C15.189 3.43582 17.7882 3.51544 19.3418 5.16728C20.2607 4.98609 21.1415 4.6489 21.9475 4.17114C21.6412 5.12097 21.0001 5.92779 20.1437 6.44049C20.957 6.34461 21.7517 6.12686 22.5 5.79454C21.9491 6.62005 21.2552 7.33913 20.4525 7.92007Z" fill="#1A1A1A"/>
</svg>
