<svg width="29" height="28" viewBox="0 0 29 28" fill="none" xmlns="http://www.w3.org/2000/svg">
<path fill-rule="evenodd" clip-rule="evenodd" d="M23.9439 6.31698C24.9473 6.58655 25.7411 7.38031 26.0107 8.38373C26.5049 10.2109 26.5199 13.9999 26.5199 13.9999C26.5199 13.9999 26.5199 17.8039 26.0256 19.6161C25.7561 20.6195 24.9623 21.4132 23.9589 21.6828C22.1467 22.1771 14.8532 22.1771 14.8532 22.1771C14.8532 22.1771 7.55965 22.1771 5.7475 21.6828C4.74407 21.4132 3.95032 20.6195 3.68075 19.6161C3.18652 17.789 3.18652 13.9999 3.18652 13.9999C3.18652 13.9999 3.18652 10.2109 3.66577 8.39871C3.93535 7.39528 4.7291 6.60153 5.73252 6.33196C7.54468 5.83773 14.8382 5.82275 14.8382 5.82275C14.8382 5.82275 22.1318 5.82275 23.9439 6.31698ZM18.5674 13.9999L12.5169 17.5044V10.4954L18.5674 13.9999Z" fill="#1A1A1A"/>
</svg>
